<mxfile host="app.diagrams.net" modified="2023-12-05T11:20:05.085Z" agent="Mozilla/5.0 (Windows NT 10.0; Win64; x64) AppleWebKit/537.36 (KHTML, like Gecko) Chrome/119.0.0.0 Safari/537.36" etag="TVK06b-tZ-osp19ZDwZm" version="22.1.5" type="device">
  <diagram name="Page-1" id="qy5oMyCj6DyUfq8n0ZYG">
    <mxGraphModel dx="1050" dy="574" grid="1" gridSize="10" guides="1" tooltips="1" connect="1" arrows="1" fold="1" page="1" pageScale="1" pageWidth="850" pageHeight="1100" math="0" shadow="0">
      <root>
        <mxCell id="0" />
        <mxCell id="1" parent="0" />
        <mxCell id="a_1NUMiRRPviw614dyFZ-1" value="fe - react client app&lt;br&gt;" style="rounded=1;whiteSpace=wrap;html=1;" parent="1" vertex="1">
          <mxGeometry x="40" y="320" width="120" height="60" as="geometry" />
        </mxCell>
        <mxCell id="a_1NUMiRRPviw614dyFZ-2" value="be/core app - nest.js" style="rounded=1;whiteSpace=wrap;html=1;" parent="1" vertex="1">
          <mxGeometry x="230" y="320" width="120" height="60" as="geometry" />
        </mxCell>
        <mxCell id="a_1NUMiRRPviw614dyFZ-4" value="" style="endArrow=classic;startArrow=classic;html=1;rounded=0;exitX=1;exitY=0.5;exitDx=0;exitDy=0;entryX=0;entryY=0.5;entryDx=0;entryDy=0;" parent="1" source="a_1NUMiRRPviw614dyFZ-1" target="a_1NUMiRRPviw614dyFZ-2" edge="1">
          <mxGeometry width="50" height="50" relative="1" as="geometry">
            <mxPoint x="400" y="510" as="sourcePoint" />
            <mxPoint x="270" y="360" as="targetPoint" />
            <Array as="points" />
          </mxGeometry>
        </mxCell>
        <mxCell id="a_1NUMiRRPviw614dyFZ-5" value="redis - ekst. servis za kesiranje i cron job" style="rounded=1;whiteSpace=wrap;html=1;" parent="1" vertex="1">
          <mxGeometry x="270" y="50" width="90" height="60" as="geometry" />
        </mxCell>
        <mxCell id="a_1NUMiRRPviw614dyFZ-6" value="" style="endArrow=classic;startArrow=classic;html=1;rounded=0;entryX=0.637;entryY=1.034;entryDx=0;entryDy=0;entryPerimeter=0;exitX=0.5;exitY=0;exitDx=0;exitDy=0;exitPerimeter=0;" parent="1" source="a_1NUMiRRPviw614dyFZ-2" target="a_1NUMiRRPviw614dyFZ-5" edge="1">
          <mxGeometry width="50" height="50" relative="1" as="geometry">
            <mxPoint x="400" y="510" as="sourcePoint" />
            <mxPoint x="450" y="460" as="targetPoint" />
          </mxGeometry>
        </mxCell>
        <mxCell id="a_1NUMiRRPviw614dyFZ-10" value="redis protokol - RESP" style="edgeLabel;html=1;align=center;verticalAlign=middle;resizable=0;points=[];" parent="a_1NUMiRRPviw614dyFZ-6" vertex="1" connectable="0">
          <mxGeometry x="-0.0023" y="-3" relative="1" as="geometry">
            <mxPoint x="3" y="-37" as="offset" />
          </mxGeometry>
        </mxCell>
        <mxCell id="a_1NUMiRRPviw614dyFZ-7" value="rabbit mq - queue za integraciju aplikacija" style="rounded=1;whiteSpace=wrap;html=1;" parent="1" vertex="1">
          <mxGeometry x="400" y="320" width="120" height="60" as="geometry" />
        </mxCell>
        <mxCell id="a_1NUMiRRPviw614dyFZ-8" value="" style="endArrow=classic;startArrow=classic;html=1;rounded=0;entryX=0;entryY=0.5;entryDx=0;entryDy=0;exitX=1;exitY=0.5;exitDx=0;exitDy=0;" parent="1" source="a_1NUMiRRPviw614dyFZ-2" target="a_1NUMiRRPviw614dyFZ-7" edge="1">
          <mxGeometry width="50" height="50" relative="1" as="geometry">
            <mxPoint x="350" y="360" as="sourcePoint" />
            <mxPoint x="450" y="460" as="targetPoint" />
          </mxGeometry>
        </mxCell>
        <mxCell id="a_1NUMiRRPviw614dyFZ-9" value="rmq&lt;br&gt;" style="edgeLabel;html=1;align=center;verticalAlign=middle;resizable=0;points=[];" parent="a_1NUMiRRPviw614dyFZ-8" vertex="1" connectable="0">
          <mxGeometry x="0.0333" y="2" relative="1" as="geometry">
            <mxPoint x="-5" y="-3" as="offset" />
          </mxGeometry>
        </mxCell>
        <mxCell id="a_1NUMiRRPviw614dyFZ-11" value="github webhook app - express&lt;br&gt;" style="rounded=1;whiteSpace=wrap;html=1;" parent="1" vertex="1">
          <mxGeometry x="560" y="140" width="120" height="60" as="geometry" />
        </mxCell>
        <mxCell id="a_1NUMiRRPviw614dyFZ-12" value="" style="endArrow=classic;startArrow=classic;html=1;rounded=0;entryX=0;entryY=1;entryDx=0;entryDy=0;exitX=1;exitY=0;exitDx=0;exitDy=0;" parent="1" source="a_1NUMiRRPviw614dyFZ-7" target="a_1NUMiRRPviw614dyFZ-11" edge="1">
          <mxGeometry width="50" height="50" relative="1" as="geometry">
            <mxPoint x="400" y="410" as="sourcePoint" />
            <mxPoint x="450" y="360" as="targetPoint" />
          </mxGeometry>
        </mxCell>
        <mxCell id="a_1NUMiRRPviw614dyFZ-13" value="rmq" style="edgeLabel;html=1;align=center;verticalAlign=middle;resizable=0;points=[];" parent="a_1NUMiRRPviw614dyFZ-12" vertex="1" connectable="0">
          <mxGeometry x="-0.0345" y="-1" relative="1" as="geometry">
            <mxPoint as="offset" />
          </mxGeometry>
        </mxCell>
        <mxCell id="a_1NUMiRRPviw614dyFZ-14" value="slack webhook app - express&lt;br&gt;" style="rounded=1;whiteSpace=wrap;html=1;" parent="1" vertex="1">
          <mxGeometry x="560" y="480" width="120" height="60" as="geometry" />
        </mxCell>
        <mxCell id="a_1NUMiRRPviw614dyFZ-15" value="" style="endArrow=classic;startArrow=classic;html=1;rounded=0;entryX=0;entryY=0.25;entryDx=0;entryDy=0;exitX=1;exitY=0.75;exitDx=0;exitDy=0;" parent="1" source="a_1NUMiRRPviw614dyFZ-7" target="a_1NUMiRRPviw614dyFZ-14" edge="1">
          <mxGeometry width="50" height="50" relative="1" as="geometry">
            <mxPoint x="400" y="410" as="sourcePoint" />
            <mxPoint x="450" y="360" as="targetPoint" />
          </mxGeometry>
        </mxCell>
        <mxCell id="a_1NUMiRRPviw614dyFZ-16" value="rmq&lt;br&gt;" style="edgeLabel;html=1;align=center;verticalAlign=middle;resizable=0;points=[];" parent="a_1NUMiRRPviw614dyFZ-15" vertex="1" connectable="0">
          <mxGeometry x="-0.0264" relative="1" as="geometry">
            <mxPoint as="offset" />
          </mxGeometry>
        </mxCell>
        <mxCell id="a_1NUMiRRPviw614dyFZ-24" value="GITHUB ekst. servis&lt;br&gt;" style="rounded=1;whiteSpace=wrap;html=1;" parent="1" vertex="1">
          <mxGeometry x="720" y="140" width="120" height="60" as="geometry" />
        </mxCell>
        <mxCell id="a_1NUMiRRPviw614dyFZ-28" value="" style="endArrow=classic;html=1;rounded=0;exitX=0;exitY=0.25;exitDx=0;exitDy=0;entryX=1;entryY=0.25;entryDx=0;entryDy=0;" parent="1" source="a_1NUMiRRPviw614dyFZ-24" target="a_1NUMiRRPviw614dyFZ-11" edge="1">
          <mxGeometry width="50" height="50" relative="1" as="geometry">
            <mxPoint x="400" y="310" as="sourcePoint" />
            <mxPoint x="450" y="260" as="targetPoint" />
          </mxGeometry>
        </mxCell>
        <mxCell id="a_1NUMiRRPviw614dyFZ-29" value="http&lt;br&gt;" style="edgeLabel;html=1;align=center;verticalAlign=middle;resizable=0;points=[];" parent="a_1NUMiRRPviw614dyFZ-28" vertex="1" connectable="0">
          <mxGeometry x="0.0885" y="-3" relative="1" as="geometry">
            <mxPoint x="1" as="offset" />
          </mxGeometry>
        </mxCell>
        <mxCell id="a_1NUMiRRPviw614dyFZ-30" value="" style="endArrow=classic;html=1;rounded=0;entryX=0;entryY=0.75;entryDx=0;entryDy=0;exitX=1;exitY=0.75;exitDx=0;exitDy=0;" parent="1" source="a_1NUMiRRPviw614dyFZ-11" target="a_1NUMiRRPviw614dyFZ-24" edge="1">
          <mxGeometry width="50" height="50" relative="1" as="geometry">
            <mxPoint x="400" y="310" as="sourcePoint" />
            <mxPoint x="450" y="260" as="targetPoint" />
          </mxGeometry>
        </mxCell>
        <mxCell id="a_1NUMiRRPviw614dyFZ-31" value="graphql&lt;br&gt;" style="edgeLabel;html=1;align=center;verticalAlign=middle;resizable=0;points=[];" parent="a_1NUMiRRPviw614dyFZ-30" vertex="1" connectable="0">
          <mxGeometry x="-0.2538" y="-4" relative="1" as="geometry">
            <mxPoint as="offset" />
          </mxGeometry>
        </mxCell>
        <mxCell id="a_1NUMiRRPviw614dyFZ-32" value="SLACK ekst.servis" style="rounded=1;whiteSpace=wrap;html=1;" parent="1" vertex="1">
          <mxGeometry x="720" y="480" width="120" height="60" as="geometry" />
        </mxCell>
        <mxCell id="a_1NUMiRRPviw614dyFZ-33" value="" style="endArrow=classic;startArrow=classic;html=1;rounded=0;entryX=0;entryY=0.5;entryDx=0;entryDy=0;exitX=1;exitY=0.5;exitDx=0;exitDy=0;" parent="1" source="a_1NUMiRRPviw614dyFZ-14" target="a_1NUMiRRPviw614dyFZ-32" edge="1">
          <mxGeometry width="50" height="50" relative="1" as="geometry">
            <mxPoint x="400" y="410" as="sourcePoint" />
            <mxPoint x="450" y="360" as="targetPoint" />
          </mxGeometry>
        </mxCell>
        <mxCell id="a_1NUMiRRPviw614dyFZ-34" value="http&lt;br&gt;" style="edgeLabel;html=1;align=center;verticalAlign=middle;resizable=0;points=[];" parent="a_1NUMiRRPviw614dyFZ-33" vertex="1" connectable="0">
          <mxGeometry x="-0.112" y="1" relative="1" as="geometry">
            <mxPoint as="offset" />
          </mxGeometry>
        </mxCell>
        <mxCell id="a_1NUMiRRPviw614dyFZ-38" value="" style="rounded=1;whiteSpace=wrap;html=1;" parent="1" vertex="1">
          <mxGeometry x="295" y="500" width="230" height="120" as="geometry" />
        </mxCell>
        <mxCell id="a_1NUMiRRPviw614dyFZ-36" value="google" style="rounded=1;whiteSpace=wrap;html=1;" parent="1" vertex="1">
          <mxGeometry x="300" y="535" width="100" height="50" as="geometry" />
        </mxCell>
        <mxCell id="a_1NUMiRRPviw614dyFZ-37" value="github" style="rounded=1;whiteSpace=wrap;html=1;" parent="1" vertex="1">
          <mxGeometry x="420" y="535" width="100" height="50" as="geometry" />
        </mxCell>
        <mxCell id="a_1NUMiRRPviw614dyFZ-39" value="oauth" style="text;html=1;strokeColor=none;fillColor=none;align=center;verticalAlign=middle;whiteSpace=wrap;rounded=0;" parent="1" vertex="1">
          <mxGeometry x="380" y="500" width="60" height="30" as="geometry" />
        </mxCell>
        <mxCell id="a_1NUMiRRPviw614dyFZ-40" value="" style="endArrow=classic;startArrow=classic;html=1;rounded=0;entryX=1;entryY=1;entryDx=0;entryDy=0;exitX=0.5;exitY=0;exitDx=0;exitDy=0;" parent="1" source="a_1NUMiRRPviw614dyFZ-39" target="a_1NUMiRRPviw614dyFZ-2" edge="1">
          <mxGeometry width="50" height="50" relative="1" as="geometry">
            <mxPoint x="400" y="400" as="sourcePoint" />
            <mxPoint x="450" y="350" as="targetPoint" />
          </mxGeometry>
        </mxCell>
        <mxCell id="a_1NUMiRRPviw614dyFZ-41" value="https" style="edgeLabel;html=1;align=center;verticalAlign=middle;resizable=0;points=[];" parent="a_1NUMiRRPviw614dyFZ-40" vertex="1" connectable="0">
          <mxGeometry x="0.111" y="3" relative="1" as="geometry">
            <mxPoint as="offset" />
          </mxGeometry>
        </mxCell>
        <mxCell id="a_1NUMiRRPviw614dyFZ-42" value="AWS S3 - file storage" style="rounded=1;whiteSpace=wrap;html=1;" parent="1" vertex="1">
          <mxGeometry x="380" y="90" width="120" height="60" as="geometry" />
        </mxCell>
        <mxCell id="a_1NUMiRRPviw614dyFZ-45" value="sendgrid - ekst. servis za slanje mejlova" style="rounded=1;whiteSpace=wrap;html=1;" parent="1" vertex="1">
          <mxGeometry x="390" y="190" width="120" height="60" as="geometry" />
        </mxCell>
        <mxCell id="a_1NUMiRRPviw614dyFZ-47" value="" style="endArrow=classic;html=1;rounded=0;entryX=0;entryY=1;entryDx=0;entryDy=0;" parent="1" source="a_1NUMiRRPviw614dyFZ-2" target="a_1NUMiRRPviw614dyFZ-45" edge="1">
          <mxGeometry width="50" height="50" relative="1" as="geometry">
            <mxPoint x="400" y="400" as="sourcePoint" />
            <mxPoint x="408" y="250" as="targetPoint" />
          </mxGeometry>
        </mxCell>
        <mxCell id="a_1NUMiRRPviw614dyFZ-48" value="https&lt;br&gt;" style="edgeLabel;html=1;align=center;verticalAlign=middle;resizable=0;points=[];" parent="a_1NUMiRRPviw614dyFZ-47" vertex="1" connectable="0">
          <mxGeometry x="-0.0348" y="2" relative="1" as="geometry">
            <mxPoint as="offset" />
          </mxGeometry>
        </mxCell>
        <mxCell id="a_1NUMiRRPviw614dyFZ-49" value="fastforex - ekst. servis za konverziju valuta" style="rounded=1;whiteSpace=wrap;html=1;" parent="1" vertex="1">
          <mxGeometry x="130" y="80" width="120" height="60" as="geometry" />
        </mxCell>
        <mxCell id="a_1NUMiRRPviw614dyFZ-52" value="" style="endArrow=classic;html=1;rounded=0;entryX=0.951;entryY=1.096;entryDx=0;entryDy=0;exitX=0.25;exitY=0;exitDx=0;exitDy=0;entryPerimeter=0;" parent="1" source="a_1NUMiRRPviw614dyFZ-2" target="a_1NUMiRRPviw614dyFZ-49" edge="1">
          <mxGeometry width="50" height="50" relative="1" as="geometry">
            <mxPoint x="400" y="400" as="sourcePoint" />
            <mxPoint x="450" y="350" as="targetPoint" />
          </mxGeometry>
        </mxCell>
        <mxCell id="a_1NUMiRRPviw614dyFZ-53" value="http" style="edgeLabel;html=1;align=center;verticalAlign=middle;resizable=0;points=[];" parent="a_1NUMiRRPviw614dyFZ-52" vertex="1" connectable="0">
          <mxGeometry x="0.0029" y="4" relative="1" as="geometry">
            <mxPoint as="offset" />
          </mxGeometry>
        </mxCell>
        <mxCell id="a_1NUMiRRPviw614dyFZ-54" value="" style="endArrow=classic;html=1;rounded=0;entryX=0.25;entryY=1;entryDx=0;entryDy=0;exitX=0.57;exitY=0.008;exitDx=0;exitDy=0;exitPerimeter=0;" parent="1" source="a_1NUMiRRPviw614dyFZ-2" target="a_1NUMiRRPviw614dyFZ-42" edge="1">
          <mxGeometry width="50" height="50" relative="1" as="geometry">
            <mxPoint x="400" y="400" as="sourcePoint" />
            <mxPoint x="450" y="350" as="targetPoint" />
          </mxGeometry>
        </mxCell>
        <mxCell id="a_1NUMiRRPviw614dyFZ-55" value="https" style="edgeLabel;html=1;align=center;verticalAlign=middle;resizable=0;points=[];" parent="a_1NUMiRRPviw614dyFZ-54" vertex="1" connectable="0">
          <mxGeometry x="0.0386" y="2" relative="1" as="geometry">
            <mxPoint x="1" as="offset" />
          </mxGeometry>
        </mxCell>
        <mxCell id="a_1NUMiRRPviw614dyFZ-57" value="" style="endArrow=classic;html=1;rounded=0;entryX=1;entryY=0;entryDx=0;entryDy=15;entryPerimeter=0;" parent="1" target="WS3d3etD7pDIfHOqatuw-1" edge="1">
          <mxGeometry width="50" height="50" relative="1" as="geometry">
            <mxPoint x="230" y="380" as="sourcePoint" />
            <mxPoint x="114.61538461538453" y="480" as="targetPoint" />
          </mxGeometry>
        </mxCell>
        <mxCell id="a_1NUMiRRPviw614dyFZ-71" value="TCP" style="edgeLabel;html=1;align=center;verticalAlign=middle;resizable=0;points=[];" parent="a_1NUMiRRPviw614dyFZ-57" vertex="1" connectable="0">
          <mxGeometry x="-0.1056" relative="1" as="geometry">
            <mxPoint as="offset" />
          </mxGeometry>
        </mxCell>
        <mxCell id="a_1NUMiRRPviw614dyFZ-58" value="" style="endArrow=classic;html=1;rounded=0;" parent="1" source="a_1NUMiRRPviw614dyFZ-11" target="WS3d3etD7pDIfHOqatuw-2" edge="1">
          <mxGeometry width="50" height="50" relative="1" as="geometry">
            <mxPoint x="400" y="400" as="sourcePoint" />
            <mxPoint x="620" y="80" as="targetPoint" />
          </mxGeometry>
        </mxCell>
        <mxCell id="a_1NUMiRRPviw614dyFZ-72" value="TCP" style="edgeLabel;html=1;align=center;verticalAlign=middle;resizable=0;points=[];" parent="a_1NUMiRRPviw614dyFZ-58" vertex="1" connectable="0">
          <mxGeometry x="0.0368" y="2" relative="1" as="geometry">
            <mxPoint as="offset" />
          </mxGeometry>
        </mxCell>
        <mxCell id="a_1NUMiRRPviw614dyFZ-59" value="" style="endArrow=classic;html=1;rounded=0;entryX=0.5;entryY=0;entryDx=0;entryDy=0;exitX=0.5;exitY=1;exitDx=0;exitDy=0;entryPerimeter=0;" parent="1" source="a_1NUMiRRPviw614dyFZ-14" target="WS3d3etD7pDIfHOqatuw-3" edge="1">
          <mxGeometry width="50" height="50" relative="1" as="geometry">
            <mxPoint x="400" y="400" as="sourcePoint" />
            <mxPoint x="620" y="590" as="targetPoint" />
          </mxGeometry>
        </mxCell>
        <mxCell id="a_1NUMiRRPviw614dyFZ-73" value="TCP" style="edgeLabel;html=1;align=center;verticalAlign=middle;resizable=0;points=[];" parent="a_1NUMiRRPviw614dyFZ-59" vertex="1" connectable="0">
          <mxGeometry x="-0.1389" y="-1" relative="1" as="geometry">
            <mxPoint as="offset" />
          </mxGeometry>
        </mxCell>
        <mxCell id="a_1NUMiRRPviw614dyFZ-60" value="algolia - ekst. servis za pretragu" style="rounded=1;whiteSpace=wrap;html=1;" parent="1" vertex="1">
          <mxGeometry x="130" y="660" width="120" height="60" as="geometry" />
        </mxCell>
        <mxCell id="a_1NUMiRRPviw614dyFZ-61" value="" style="endArrow=classic;html=1;rounded=0;exitX=0.166;exitY=1.096;exitDx=0;exitDy=0;exitPerimeter=0;entryX=0.587;entryY=-0.054;entryDx=0;entryDy=0;entryPerimeter=0;" parent="1" source="a_1NUMiRRPviw614dyFZ-2" target="a_1NUMiRRPviw614dyFZ-60" edge="1">
          <mxGeometry width="50" height="50" relative="1" as="geometry">
            <mxPoint x="400" y="400" as="sourcePoint" />
            <mxPoint x="450" y="350" as="targetPoint" />
          </mxGeometry>
        </mxCell>
        <mxCell id="a_1NUMiRRPviw614dyFZ-74" value="https" style="edgeLabel;html=1;align=center;verticalAlign=middle;resizable=0;points=[];" parent="a_1NUMiRRPviw614dyFZ-61" vertex="1" connectable="0">
          <mxGeometry x="-0.4978" y="2" relative="1" as="geometry">
            <mxPoint x="-9" y="46" as="offset" />
          </mxGeometry>
        </mxCell>
        <mxCell id="a_1NUMiRRPviw614dyFZ-62" value="census - ETL" style="rounded=1;whiteSpace=wrap;html=1;" parent="1" vertex="1">
          <mxGeometry x="55" y="580" width="90" height="50" as="geometry" />
        </mxCell>
        <mxCell id="a_1NUMiRRPviw614dyFZ-63" value="" style="endArrow=classic;html=1;rounded=0;exitX=1;exitY=1;exitDx=0;exitDy=0;" parent="1" source="a_1NUMiRRPviw614dyFZ-62" target="a_1NUMiRRPviw614dyFZ-60" edge="1">
          <mxGeometry width="50" height="50" relative="1" as="geometry">
            <mxPoint x="400" y="400" as="sourcePoint" />
            <mxPoint x="450" y="350" as="targetPoint" />
          </mxGeometry>
        </mxCell>
        <mxCell id="a_1NUMiRRPviw614dyFZ-75" value="https&lt;br&gt;" style="edgeLabel;html=1;align=center;verticalAlign=middle;resizable=0;points=[];" parent="a_1NUMiRRPviw614dyFZ-63" vertex="1" connectable="0">
          <mxGeometry x="-0.2264" y="2" relative="1" as="geometry">
            <mxPoint as="offset" />
          </mxGeometry>
        </mxCell>
        <mxCell id="a_1NUMiRRPviw614dyFZ-64" value="" style="endArrow=classic;html=1;rounded=0;entryX=0.747;entryY=0.955;entryDx=0;entryDy=0;entryPerimeter=0;" parent="1" source="a_1NUMiRRPviw614dyFZ-62" target="WS3d3etD7pDIfHOqatuw-1" edge="1">
          <mxGeometry width="50" height="50" relative="1" as="geometry">
            <mxPoint x="400" y="400" as="sourcePoint" />
            <mxPoint x="95.24000000000001" y="544.6800000000001" as="targetPoint" />
          </mxGeometry>
        </mxCell>
        <mxCell id="a_1NUMiRRPviw614dyFZ-76" value="TCP" style="edgeLabel;html=1;align=center;verticalAlign=middle;resizable=0;points=[];" parent="a_1NUMiRRPviw614dyFZ-64" vertex="1" connectable="0">
          <mxGeometry x="0.1113" y="1" relative="1" as="geometry">
            <mxPoint as="offset" />
          </mxGeometry>
        </mxCell>
        <mxCell id="a_1NUMiRRPviw614dyFZ-65" value="stripe - ekst. servis za placanje" style="rounded=1;whiteSpace=wrap;html=1;" parent="1" vertex="1">
          <mxGeometry x="90" y="190" width="120" height="60" as="geometry" />
        </mxCell>
        <mxCell id="a_1NUMiRRPviw614dyFZ-66" value="" style="endArrow=classic;startArrow=classic;html=1;rounded=0;entryX=1;entryY=1;entryDx=0;entryDy=0;exitX=0;exitY=0;exitDx=0;exitDy=0;" parent="1" source="a_1NUMiRRPviw614dyFZ-2" target="a_1NUMiRRPviw614dyFZ-65" edge="1">
          <mxGeometry width="50" height="50" relative="1" as="geometry">
            <mxPoint x="400" y="400" as="sourcePoint" />
            <mxPoint x="450" y="350" as="targetPoint" />
          </mxGeometry>
        </mxCell>
        <mxCell id="a_1NUMiRRPviw614dyFZ-67" value="https" style="edgeLabel;html=1;align=center;verticalAlign=middle;resizable=0;points=[];" parent="a_1NUMiRRPviw614dyFZ-66" vertex="1" connectable="0">
          <mxGeometry x="0.2337" y="-2" relative="1" as="geometry">
            <mxPoint as="offset" />
          </mxGeometry>
        </mxCell>
        <mxCell id="a_1NUMiRRPviw614dyFZ-68" value="" style="endArrow=classic;html=1;rounded=0;exitX=0.5;exitY=0;exitDx=0;exitDy=0;entryX=0.184;entryY=0.982;entryDx=0;entryDy=0;entryPerimeter=0;" parent="1" source="a_1NUMiRRPviw614dyFZ-1" target="a_1NUMiRRPviw614dyFZ-65" edge="1">
          <mxGeometry width="50" height="50" relative="1" as="geometry">
            <mxPoint x="400" y="400" as="sourcePoint" />
            <mxPoint x="450" y="350" as="targetPoint" />
          </mxGeometry>
        </mxCell>
        <mxCell id="a_1NUMiRRPviw614dyFZ-69" value="https&lt;br&gt;" style="edgeLabel;html=1;align=center;verticalAlign=middle;resizable=0;points=[];" parent="a_1NUMiRRPviw614dyFZ-68" vertex="1" connectable="0">
          <mxGeometry x="0.1393" y="2" relative="1" as="geometry">
            <mxPoint as="offset" />
          </mxGeometry>
        </mxCell>
        <mxCell id="WS3d3etD7pDIfHOqatuw-1" value="posgres db" style="shape=cylinder3;whiteSpace=wrap;html=1;boundedLbl=1;backgroundOutline=1;size=15;" vertex="1" parent="1">
          <mxGeometry x="30" y="460" width="60" height="80" as="geometry" />
        </mxCell>
        <mxCell id="WS3d3etD7pDIfHOqatuw-2" value="github mongo db" style="shape=cylinder3;whiteSpace=wrap;html=1;boundedLbl=1;backgroundOutline=1;size=15;" vertex="1" parent="1">
          <mxGeometry x="590" width="60" height="80" as="geometry" />
        </mxCell>
        <mxCell id="WS3d3etD7pDIfHOqatuw-3" value="slack mongo db" style="shape=cylinder3;whiteSpace=wrap;html=1;boundedLbl=1;backgroundOutline=1;size=15;" vertex="1" parent="1">
          <mxGeometry x="590" y="600" width="60" height="80" as="geometry" />
        </mxCell>
      </root>
    </mxGraphModel>
  </diagram>
</mxfile>
